<svg height="128" width="128" xmlns="http://www.w3.org/2000/svg"><linearGradient id="a" gradientUnits="userSpaceOnUse" x1="8" x2="120" y1="77" y2="77"><stop offset="0" stop-color="#5e5c64"/><stop offset=".036" stop-color="#9a9996"/><stop offset=".071" stop-color="#5e5c64"/><stop offset=".929" stop-color="#5e5c64"/><stop offset=".964" stop-color="#9a9996"/><stop offset="1" stop-color="#5e5c64"/></linearGradient><g stroke-width="2"><rect fill="url(#a)" height="64" ry="4" width="112" x="8" y="44"/><rect fill="#9a9996" height="64" ry="4" width="112" x="8" y="32"/><rect fill="#77767b" height="12" ry="4" width="96" x="16" y="60"/><path d="M20 22h88v46H20z" fill="#9a9996"/><path d="M20 20h88v44H20z" fill="#f6f5f4"/><rect fill="#5e5c64" height="8" ry="2" width="4" x="16" y="80"/><rect fill="#5e5c64" height="8" ry="2" width="4" x="24" y="80"/><circle cx="18" cy="86" fill="#33d17a" r="2"/><circle cx="26" cy="86" fill="#f6d32d" r="2"/><path d="M24 32h80v4H24zm0 8h80v4H24zm0 8h80v4H24zm0 8h56v4H24zm0-32h80v4H24z" fill="#c0bfbc"/></g></svg>